solid moodi_so_final_v2
facet normal 0.0 0.0 -1.0
  outer loop
    vertex 6.000000000000002 35.36563939016334 0.0
    vertex 6.021576059117044 2.2053087061215475 0.0
    vertex 5.971424680601027 2.605618189404917 0.0
  endloop
endfacet
facet normal 0.0 0.0 -1.0
  outer loop
    vertex 6.021576059117044 2.2053087061215475 0.0
    vertex 6.000000000000002 35.36563939016334 0.0
    vertex 6.071953054773799 35.7532837779165 0.0
  endloop
endfacet
facet normal 0.0 0.0 -1.0
  outer loop
    vertex 6.021576059117044 2.2053087061215475 0.0
    vertex 6.071953054773799 35.7532837779165 0.0
    vertex 6.129756948517863 1.8166446630945354 0.0
  endloop
endfacet
facet normal 0.0 0.0 -1.0
  outer loop
    vertex 6.129756948517863 1.8166446630945354 0.0
    vertex 6.071953054773799 35.7532837779165 0.0
    vertex 6.194956116589297 36.12787109781912 0.0
  endloop
endfacet
facet normal 0.0 0.0 -1.0
  outer loop
    vertex 6.129756948517863 1.8166446630945354 0.0
    vertex 6.194956116589297 36.12787109781912 0.0
    vertex 6.293639040818568 1.4479910275546182 0.0
  endloop
endfacet
facet normal 0.0 0.0 -1.0
  outer loop
    vertex 6.293639040818568 1.4479910275546182 0.0
    vertex 6.194956116589297 36.12787109781912 0.0
    vertex 6.366812085555742 36.48271041269052 0.0
  endloop
endfacet
facet normal 0.0 0.0 -1.0
  outer loop
    vertex 6.293639040818568 1.4479910275546182 0.0
    vertex 6.366812085555742 36.48271041269052 0.0
    vertex 6.509695206724862 1.1072820955502947 0.0
  endloop
endfacet
facet normal 0.0 0.0 -1.0
  outer loop
    vertex 6.509695206724862 1.1072820955502947 0.0
    vertex 6.366812085555742 36.48271041269052 0.0
    vertex 6.584451243528987 36.81146352729859 0.0
  endloop
endfacet
facet normal 0.0 0.0 -1.0
  outer loop
    vertex 6.509695206724862 1.1072820955502947 0.0
    vertex 6.584451243528987 36.81146352729859 0.0
    vertex 6.773275407777494 0.8018507271764657 0.0
  endloop
endfacet
facet normal 0.0 0.0 -1.0
  outer loop
    vertex 6.773275407777494 0.8018507271764657 0.0
    vertex 6.584451243528987 36.81146352729859 0.0
    vertex 6.84398608589615 37.10825820219229 0.0
  endloop
endfacet
facet normal 0.0 0.0 -1.0
  outer loop
    vertex 6.773275407777494 0.8018507271764657 0.0
    vertex 6.84398608589615 37.10825820219229 0.0
    vertex 7.078706776151322 0.538270526123835 0.0
  endloop
endfacet
facet normal 0.0 0.0 -1.0
  outer loop
    vertex 7.078706776151322 0.538270526123835 0.0
    vertex 6.84398608589615 37.10825820219229 0.0
    vertex 7.140780760789854 37.367793044559455 0.0
  endloop
endfacet
facet normal 0.0 0.0 -1.0
  outer loop
    vertex 7.078706776151322 0.538270526123835 0.0
    vertex 7.140780760789854 37.367793044559455 0.0
    vertex 7.419415708155646 0.32221436021754 0.0
  endloop
endfacet
facet normal 0.0 0.0 -1.0
  outer loop
    vertex 7.419415708155646 0.32221436021754 0.0
    vertex 7.140780760789854 37.367793044559455 0.0
    vertex 7.46953387539792 37.5854322025327 0.0
  endloop
endfacet
facet normal 0.0 0.0 -1.0
  outer loop
    vertex 7.419415708155646 0.32221436021754 0.0
    vertex 7.46953387539792 37.5854322025327 0.0
    vertex 7.788069343695564 0.15833226791683513 0.0
  endloop
endfacet
facet normal 0.0 0.0 -1.0
  outer loop
    vertex 7.788069343695564 0.15833226791683513 0.0
    vertex 7.46953387539792 37.5854322025327 0.0
    vertex 7.82437319026933 37.75728817149914 0.0
  endloop
endfacet
facet normal 0.0 0.0 -1.0
  outer loop
    vertex 7.788069343695564 0.15833226791683513 0.0
    vertex 7.82437319026933 37.75728817149914 0.0
    vertex 8.176733386722574 0.050151378516016004 0.0
  endloop
endfacet
facet normal 0.0 0.0 -1.0
  outer loop
    vertex 8.176733386722574 0.050151378516016004 0.0
    vertex 7.82437319026933 37.75728817149914 0.0
    vertex 8.19896051017194 37.88029123331464 0.0
  endloop
endfacet
facet normal 0.0 0.0 -1.0
  outer loop
    vertex 8.176733386722574 0.050151378516016004 0.0
    vertex 8.19896051017194 37.88029123331464 0.0
    vertex 8.577042870005945 0.0 0.0
  endloop
endfacet
facet normal 0.0 0.0 -1.0
  outer loop
    vertex 8.577042870005945 0.0 0.0
    vertex 8.19896051017194 37.88029123331464 0.0
    vertex 8.586604897925104 37.95224428808844 0.0
  endloop
endfacet
facet normal 0.0 0.0 -1.0
  outer loop
    vertex 8.577042870005945 0.0 0.0
    vertex 8.586604897925104 37.95224428808844 0.0
    vertex 8.980382188964041 0.008957508363013155 0.0
  endloop
endfacet
facet normal 0.0 0.0 -1.0
  outer loop
    vertex 8.980382188964041 0.008957508363013155 0.0
    vertex 8.586604897925104 37.95224428808844 0.0
    vertex 49.168333443479966 37.95224428808844 0.0
  endloop
endfacet
facet normal 0.0 0.0 -1.0
  outer loop
    vertex 8.980382188964041 0.008957508363013155 0.0
    vertex 49.168333443479966 37.95224428808844 0.0
    vertex 53.980382188964036 0.008957508363004343 0.0
  endloop
endfacet
facet normal 0.0 0.0 -1.0
  outer loop
    vertex 53.980382188964036 0.008957508363004343 0.0
    vertex 49.168333443479966 37.95224428808844 0.0
    vertex 53.980382188964164 37.95224428808843 0.0
  endloop
endfacet
facet normal 0.0 0.0 -1.0
  outer loop
    vertex 53.980382188964036 0.008957508363004343 0.0
    vertex 53.980382188964164 37.95224428808843 0.0
    vertex 54.37415948000297 0.02857531939896282 0.0
  endloop
endfacet
facet normal 0.0 0.0 -1.0
  outer loop
    vertex 54.37415948000297 0.02857531939896282 0.0
    vertex 53.980382188964164 37.95224428808843 0.0
    vertex 54.3741594800031 37.93262647705247 0.0
  endloop
endfacet
facet normal 0.0 0.0 -1.0
  outer loop
    vertex 54.37415948000297 0.02857531939896282 0.0
    vertex 54.3741594800031 37.93262647705247 0.0
    vertex 54.76180386775614 0.1005283741727601 0.0
  endloop
endfacet
facet normal 0.0 0.0 -1.0
  outer loop
    vertex 54.76180386775614 0.1005283741727601 0.0
    vertex 54.3741594800031 37.93262647705247 0.0
    vertex 54.761803867756264 37.86067342227867 0.0
  endloop
endfacet
facet normal 0.0 0.0 -1.0
  outer loop
    vertex 54.76180386775614 0.1005283741727601 0.0
    vertex 54.761803867756264 37.86067342227867 0.0
    vertex 55.13639118765875 0.22353143598825664 0.0
  endloop
endfacet
facet normal 0.0 0.0 -1.0
  outer loop
    vertex 55.13639118765875 0.22353143598825664 0.0
    vertex 54.761803867756264 37.86067342227867 0.0
    vertex 55.13639118765888 37.73767036046317 0.0
  endloop
endfacet
facet normal 0.0 0.0 -1.0
  outer loop
    vertex 55.13639118765875 0.22353143598825664 0.0
    vertex 55.13639118765888 37.73767036046317 0.0
    vertex 55.491230502530165 0.39538740495470176 0.0
  endloop
endfacet
facet normal 0.0 0.0 -1.0
  outer loop
    vertex 55.491230502530165 0.39538740495470176 0.0
    vertex 55.13639118765888 37.73767036046317 0.0
    vertex 55.49123050253029 37.56581439149673 0.0
  endloop
endfacet
facet normal 0.0 0.0 -1.0
  outer loop
    vertex 55.491230502530165 0.39538740495470176 0.0
    vertex 55.49123050253029 37.56581439149673 0.0
    vertex 55.81998361713824 0.613026562927946 0.0
  endloop
endfacet
facet normal 0.0 0.0 -1.0
  outer loop
    vertex 55.81998361713824 0.613026562927946 0.0
    vertex 55.49123050253029 37.56581439149673 0.0
    vertex 55.819983617138355 37.348175233523484 0.0
  endloop
endfacet
facet normal 0.0 0.0 -1.0
  outer loop
    vertex 55.81998361713824 0.613026562927946 0.0
    vertex 55.819983617138355 37.348175233523484 0.0
    vertex 56.11677829203194 0.8725614052951093 0.0
  endloop
endfacet
facet normal 0.0 0.0 -1.0
  outer loop
    vertex 56.11677829203194 0.8725614052951093 0.0
    vertex 55.819983617138355 37.348175233523484 0.0
    vertex 56.116778292032066 37.08864039115632 0.0
  endloop
endfacet
facet normal 0.0 0.0 -1.0
  outer loop
    vertex 56.11677829203194 0.8725614052951093 0.0
    vertex 56.116778292032066 37.08864039115632 0.0
    vertex 56.3763131343991 1.1693560801888123 0.0
  endloop
endfacet
facet normal 0.0 0.0 -1.0
  outer loop
    vertex 56.3763131343991 1.1693560801888123 0.0
    vertex 56.116778292032066 37.08864039115632 0.0
    vertex 56.376313134399226 36.791845716262614 0.0
  endloop
endfacet
facet normal 0.0 0.0 -1.0
  outer loop
    vertex 56.3763131343991 1.1693560801888123 0.0
    vertex 56.376313134399226 36.791845716262614 0.0
    vertex 56.59395229237235 1.498109194796879 0.0
  endloop
endfacet
facet normal 0.0 0.0 -1.0
  outer loop
    vertex 56.59395229237235 1.498109194796879 0.0
    vertex 56.376313134399226 36.791845716262614 0.0
    vertex 56.59395229237247 36.46309260165455 0.0
  endloop
endfacet
facet normal 0.0 0.0 -1.0
  outer loop
    vertex 56.59395229237235 1.498109194796879 0.0
    vertex 56.59395229237247 36.46309260165455 0.0
    vertex 56.7658082613388 1.8529485096682887 0.0
  endloop
endfacet
facet normal 0.0 0.0 -1.0
  outer loop
    vertex 56.7658082613388 1.8529485096682887 0.0
    vertex 56.59395229237247 36.46309260165455 0.0
    vertex 56.76580826133891 36.10825328678314 0.0
  endloop
endfacet
facet normal 0.0 0.0 -1.0
  outer loop
    vertex 56.7658082613388 1.8529485096682887 0.0
    vertex 56.76580826133891 36.10825328678314 0.0
    vertex 56.88881132315429 2.2275358295708996 0.0
  endloop
endfacet
facet normal 0.0 0.0 -1.0
  outer loop
    vertex 56.88881132315429 2.2275358295708996 0.0
    vertex 56.76580826133891 36.10825328678314 0.0
    vertex 56.88881132315441 35.73366596688053 0.0
  endloop
endfacet
facet normal 0.0 0.0 -1.0
  outer loop
    vertex 56.88881132315429 2.2275358295708996 0.0
    vertex 56.88881132315441 35.73366596688053 0.0
    vertex 56.96076437792809 2.615180217324065 0.0
  endloop
endfacet
facet normal 0.0 0.0 -1.0
  outer loop
    vertex 56.96076437792809 2.615180217324065 0.0
    vertex 56.88881132315441 35.73366596688053 0.0
    vertex 56.960764377928214 35.34602157912736 0.0
  endloop
endfacet
facet normal 0.0 0.0 -1.0
  outer loop
    vertex 56.96076437792809 2.615180217324065 0.0
    vertex 56.960764377928214 35.34602157912736 0.0
    vertex 56.98038218896406 3.008957508363004 0.0
  endloop
endfacet
facet normal -0.0 -0.0 1.0
  outer loop
    vertex 8.577042870005945 0.0 1.7999999999999998
    vertex 8.18038218896404 2.2089575083630133 1.7999999999999998
    vertex 8.176733386722574 0.050151378516016004 1.7999999999999998
  endloop
endfacet
facet normal -0.0 -0.0 1.0
  outer loop
    vertex 8.18038218896404 2.2089575083630133 1.7999999999999998
    vertex 8.577042870005945 0.0 1.7999999999999998
    vertex 54.78038218896404 2.2089575083630133 1.7999999999999998
  endloop
endfacet
facet normal -0.0 -0.0 1.0
  outer loop
    vertex 54.78038218896404 2.2089575083630133 1.7999999999999998
    vertex 8.577042870005945 0.0 1.7999999999999998
    vertex 8.980382188964041 0.008957508363013155 1.7999999999999998
  endloop
endfacet
facet normal -0.0 -0.0 1.0
  outer loop
    vertex 54.78038218896404 2.2089575083630133 1.7999999999999998
    vertex 8.980382188964041 0.008957508363013155 1.7999999999999998
    vertex 53.980382188964036 0.008957508363004343 1.7999999999999998
  endloop
endfacet
facet normal -0.0 -0.0 1.0
  outer loop
    vertex 54.78038218896404 2.2089575083630133 1.7999999999999998
    vertex 53.980382188964036 0.008957508363004343 1.7999999999999998
    vertex 54.37415948000297 0.02857531939896282 1.7999999999999998
  endloop
endfacet
facet normal -0.0 -0.0 1.0
  outer loop
    vertex 54.78038218896404 2.2089575083630133 1.7999999999999998
    vertex 54.37415948000297 0.02857531939896282 1.7999999999999998
    vertex 54.76180386775614 0.1005283741727601 1.7999999999999998
  endloop
endfacet
facet normal -0.0 -0.0 1.0
  outer loop
    vertex 54.78038218896404 2.2089575083630133 1.7999999999999998
    vertex 54.76180386775614 0.1005283741727601 1.7999999999999998
    vertex 55.13639118765875 0.22353143598825664 1.7999999999999998
  endloop
endfacet
facet normal -0.0 -0.0 1.0
  outer loop
    vertex 54.78038218896404 2.2089575083630133 1.7999999999999998
    vertex 55.13639118765875 0.22353143598825664 1.7999999999999998
    vertex 54.78038218896404 35.808957508363015 1.7999999999999998
  endloop
endfacet
facet normal -0.0 -0.0 1.0
  outer loop
    vertex 6.021576059117044 2.2053087061215475 1.7999999999999998
    vertex 6.000000000000002 35.36563939016334 1.7999999999999998
    vertex 5.971424680601027 2.605618189404917 1.7999999999999998
  endloop
endfacet
facet normal -0.0 -0.0 1.0
  outer loop
    vertex 6.000000000000002 35.36563939016334 1.7999999999999998
    vertex 6.021576059117044 2.2053087061215475 1.7999999999999998
    vertex 6.071953054773799 35.7532837779165 1.7999999999999998
  endloop
endfacet
facet normal -0.0 -0.0 1.0
  outer loop
    vertex 6.071953054773799 35.7532837779165 1.7999999999999998
    vertex 6.021576059117044 2.2053087061215475 1.7999999999999998
    vertex 6.129756948517863 1.8166446630945354 1.7999999999999998
  endloop
endfacet
facet normal -0.0 -0.0 1.0
  outer loop
    vertex 6.071953054773799 35.7532837779165 1.7999999999999998
    vertex 6.129756948517863 1.8166446630945354 1.7999999999999998
    vertex 6.194956116589297 36.12787109781912 1.7999999999999998
  endloop
endfacet
facet normal -0.0 -0.0 1.0
  outer loop
    vertex 6.194956116589297 36.12787109781912 1.7999999999999998
    vertex 6.129756948517863 1.8166446630945354 1.7999999999999998
    vertex 6.293639040818568 1.4479910275546182 1.7999999999999998
  endloop
endfacet
facet normal -0.0 -0.0 1.0
  outer loop
    vertex 6.194956116589297 36.12787109781912 1.7999999999999998
    vertex 6.293639040818568 1.4479910275546182 1.7999999999999998
    vertex 6.366812085555742 36.48271041269052 1.7999999999999998
  endloop
endfacet
facet normal -0.0 -0.0 1.0
  outer loop
    vertex 6.366812085555742 36.48271041269052 1.7999999999999998
    vertex 6.293639040818568 1.4479910275546182 1.7999999999999998
    vertex 6.509695206724862 1.1072820955502947 1.7999999999999998
  endloop
endfacet
facet normal -0.0 -0.0 1.0
  outer loop
    vertex 6.366812085555742 36.48271041269052 1.7999999999999998
    vertex 6.509695206724862 1.1072820955502947 1.7999999999999998
    vertex 6.584451243528987 36.81146352729859 1.7999999999999998
  endloop
endfacet
facet normal -0.0 -0.0 1.0
  outer loop
    vertex 6.584451243528987 36.81146352729859 1.7999999999999998
    vertex 6.509695206724862 1.1072820955502947 1.7999999999999998
    vertex 6.773275407777494 0.8018507271764657 1.7999999999999998
  endloop
endfacet
facet normal -0.0 -0.0 1.0
  outer loop
    vertex 6.584451243528987 36.81146352729859 1.7999999999999998
    vertex 6.773275407777494 0.8018507271764657 1.7999999999999998
    vertex 6.84398608589615 37.10825820219229 1.7999999999999998
  endloop
endfacet
facet normal -0.0 -0.0 1.0
  outer loop
    vertex 6.84398608589615 37.10825820219229 1.7999999999999998
    vertex 6.773275407777494 0.8018507271764657 1.7999999999999998
    vertex 7.078706776151322 0.538270526123835 1.7999999999999998
  endloop
endfacet
facet normal -0.0 -0.0 1.0
  outer loop
    vertex 6.84398608589615 37.10825820219229 1.7999999999999998
    vertex 7.078706776151322 0.538270526123835 1.7999999999999998
    vertex 7.140780760789854 37.367793044559455 1.7999999999999998
  endloop
endfacet
facet normal -0.0 -0.0 1.0
  outer loop
    vertex 7.140780760789854 37.367793044559455 1.7999999999999998
    vertex 7.078706776151322 0.538270526123835 1.7999999999999998
    vertex 7.419415708155646 0.32221436021754 1.7999999999999998
  endloop
endfacet
facet normal -0.0 -0.0 1.0
  outer loop
    vertex 7.140780760789854 37.367793044559455 1.7999999999999998
    vertex 7.419415708155646 0.32221436021754 1.7999999999999998
    vertex 7.46953387539792 37.5854322025327 1.7999999999999998
  endloop
endfacet
facet normal -0.0 -0.0 1.0
  outer loop
    vertex 7.46953387539792 37.5854322025327 1.7999999999999998
    vertex 7.419415708155646 0.32221436021754 1.7999999999999998
    vertex 7.788069343695564 0.15833226791683513 1.7999999999999998
  endloop
endfacet
facet normal -0.0 -0.0 1.0
  outer loop
    vertex 7.46953387539792 37.5854322025327 1.7999999999999998
    vertex 7.788069343695564 0.15833226791683513 1.7999999999999998
    vertex 7.82437319026933 37.75728817149914 1.7999999999999998
  endloop
endfacet
facet normal -0.0 -0.0 1.0
  outer loop
    vertex 7.82437319026933 37.75728817149914 1.7999999999999998
    vertex 7.788069343695564 0.15833226791683513 1.7999999999999998
    vertex 8.176733386722574 0.050151378516016004 1.7999999999999998
  endloop
endfacet
facet normal -0.0 -0.0 1.0
  outer loop
    vertex 7.82437319026933 37.75728817149914 1.7999999999999998
    vertex 8.176733386722574 0.050151378516016004 1.7999999999999998
    vertex 8.18038218896404 35.808957508363015 1.7999999999999998
  endloop
endfacet
facet normal -0.0 -0.0 1.0
  outer loop
    vertex 7.82437319026933 37.75728817149914 1.7999999999999998
    vertex 8.18038218896404 35.808957508363015 1.7999999999999998
    vertex 8.19896051017194 37.88029123331464 1.7999999999999998
  endloop
endfacet
facet normal -0.0 -0.0 1.0
  outer loop
    vertex 8.18038218896404 35.808957508363015 1.7999999999999998
    vertex 8.176733386722574 0.050151378516016004 1.7999999999999998
    vertex 8.18038218896404 2.2089575083630133 1.7999999999999998
  endloop
endfacet
facet normal -0.0 -0.0 1.0
  outer loop
    vertex 8.19896051017194 37.88029123331464 1.7999999999999998
    vertex 8.18038218896404 35.808957508363015 1.7999999999999998
    vertex 54.78038218896404 35.808957508363015 1.7999999999999998
  endloop
endfacet
facet normal -0.0 -0.0 1.0
  outer loop
    vertex 8.19896051017194 37.88029123331464 1.7999999999999998
    vertex 54.78038218896404 35.808957508363015 1.7999999999999998
    vertex 8.586604897925104 37.95224428808844 1.7999999999999998
  endloop
endfacet
facet normal -0.0 -0.0 1.0
  outer loop
    vertex 8.586604897925104 37.95224428808844 1.7999999999999998
    vertex 54.78038218896404 35.808957508363015 1.7999999999999998
    vertex 49.168333443479966 37.95224428808844 1.7999999999999998
  endloop
endfacet
facet normal -0.0 -0.0 1.0
  outer loop
    vertex 49.168333443479966 37.95224428808844 1.7999999999999998
    vertex 54.78038218896404 35.808957508363015 1.7999999999999998
    vertex 53.980382188964164 37.95224428808843 1.7999999999999998
  endloop
endfacet
facet normal -0.0 -0.0 1.0
  outer loop
    vertex 53.980382188964164 37.95224428808843 1.7999999999999998
    vertex 54.78038218896404 35.808957508363015 1.7999999999999998
    vertex 54.3741594800031 37.93262647705247 1.7999999999999998
  endloop
endfacet
facet normal -0.0 -0.0 1.0
  outer loop
    vertex 54.3741594800031 37.93262647705247 1.7999999999999998
    vertex 54.78038218896404 35.808957508363015 1.7999999999999998
    vertex 54.761803867756264 37.86067342227867 1.7999999999999998
  endloop
endfacet
facet normal -0.0 -0.0 1.0
  outer loop
    vertex 54.761803867756264 37.86067342227867 1.7999999999999998
    vertex 54.78038218896404 35.808957508363015 1.7999999999999998
    vertex 55.13639118765888 37.73767036046317 1.7999999999999998
  endloop
endfacet
facet normal -0.0 -0.0 1.0
  outer loop
    vertex 55.13639118765888 37.73767036046317 1.7999999999999998
    vertex 54.78038218896404 35.808957508363015 1.7999999999999998
    vertex 55.13639118765875 0.22353143598825664 1.7999999999999998
  endloop
endfacet
facet normal -0.0 -0.0 1.0
  outer loop
    vertex 55.13639118765888 37.73767036046317 1.7999999999999998
    vertex 55.13639118765875 0.22353143598825664 1.7999999999999998
    vertex 55.491230502530165 0.39538740495470176 1.7999999999999998
  endloop
endfacet
facet normal -0.0 -0.0 1.0
  outer loop
    vertex 55.13639118765888 37.73767036046317 1.7999999999999998
    vertex 55.491230502530165 0.39538740495470176 1.7999999999999998
    vertex 55.49123050253029 37.56581439149673 1.7999999999999998
  endloop
endfacet
facet normal -0.0 -0.0 1.0
  outer loop
    vertex 55.49123050253029 37.56581439149673 1.7999999999999998
    vertex 55.491230502530165 0.39538740495470176 1.7999999999999998
    vertex 55.81998361713824 0.613026562927946 1.7999999999999998
  endloop
endfacet
facet normal -0.0 -0.0 1.0
  outer loop
    vertex 55.49123050253029 37.56581439149673 1.7999999999999998
    vertex 55.81998361713824 0.613026562927946 1.7999999999999998
    vertex 55.819983617138355 37.348175233523484 1.7999999999999998
  endloop
endfacet
facet normal -0.0 -0.0 1.0
  outer loop
    vertex 55.819983617138355 37.348175233523484 1.7999999999999998
    vertex 55.81998361713824 0.613026562927946 1.7999999999999998
    vertex 56.11677829203194 0.8725614052951093 1.7999999999999998
  endloop
endfacet
facet normal -0.0 -0.0 1.0
  outer loop
    vertex 55.819983617138355 37.348175233523484 1.7999999999999998
    vertex 56.11677829203194 0.8725614052951093 1.7999999999999998
    vertex 56.116778292032066 37.08864039115632 1.7999999999999998
  endloop
endfacet
facet normal -0.0 -0.0 1.0
  outer loop
    vertex 56.116778292032066 37.08864039115632 1.7999999999999998
    vertex 56.11677829203194 0.8725614052951093 1.7999999999999998
    vertex 56.3763131343991 1.1693560801888123 1.7999999999999998
  endloop
endfacet
facet normal -0.0 -0.0 1.0
  outer loop
    vertex 56.116778292032066 37.08864039115632 1.7999999999999998
    vertex 56.3763131343991 1.1693560801888123 1.7999999999999998
    vertex 56.376313134399226 36.791845716262614 1.7999999999999998
  endloop
endfacet
facet normal -0.0 -0.0 1.0
  outer loop
    vertex 56.376313134399226 36.791845716262614 1.7999999999999998
    vertex 56.3763131343991 1.1693560801888123 1.7999999999999998
    vertex 56.59395229237235 1.498109194796879 1.7999999999999998
  endloop
endfacet
facet normal -0.0 -0.0 1.0
  outer loop
    vertex 56.376313134399226 36.791845716262614 1.7999999999999998
    vertex 56.59395229237235 1.498109194796879 1.7999999999999998
    vertex 56.59395229237247 36.46309260165455 1.7999999999999998
  endloop
endfacet
facet normal -0.0 -0.0 1.0
  outer loop
    vertex 56.59395229237247 36.46309260165455 1.7999999999999998
    vertex 56.59395229237235 1.498109194796879 1.7999999999999998
    vertex 56.7658082613388 1.8529485096682887 1.7999999999999998
  endloop
endfacet
facet normal -0.0 -0.0 1.0
  outer loop
    vertex 56.59395229237247 36.46309260165455 1.7999999999999998
    vertex 56.7658082613388 1.8529485096682887 1.7999999999999998
    vertex 56.76580826133891 36.10825328678314 1.7999999999999998
  endloop
endfacet
facet normal -0.0 -0.0 1.0
  outer loop
    vertex 56.76580826133891 36.10825328678314 1.7999999999999998
    vertex 56.7658082613388 1.8529485096682887 1.7999999999999998
    vertex 56.88881132315429 2.2275358295708996 1.7999999999999998
  endloop
endfacet
facet normal -0.0 -0.0 1.0
  outer loop
    vertex 56.76580826133891 36.10825328678314 1.7999999999999998
    vertex 56.88881132315429 2.2275358295708996 1.7999999999999998
    vertex 56.88881132315441 35.73366596688053 1.7999999999999998
  endloop
endfacet
facet normal -0.0 -0.0 1.0
  outer loop
    vertex 56.88881132315441 35.73366596688053 1.7999999999999998
    vertex 56.88881132315429 2.2275358295708996 1.7999999999999998
    vertex 56.96076437792809 2.615180217324065 1.7999999999999998
  endloop
endfacet
facet normal -0.0 -0.0 1.0
  outer loop
    vertex 56.88881132315441 35.73366596688053 1.7999999999999998
    vertex 56.96076437792809 2.615180217324065 1.7999999999999998
    vertex 56.960764377928214 35.34602157912736 1.7999999999999998
  endloop
endfacet
facet normal -0.0 -0.0 1.0
  outer loop
    vertex 56.960764377928214 35.34602157912736 1.7999999999999998
    vertex 56.96076437792809 2.615180217324065 1.7999999999999998
    vertex 56.98038218896406 3.008957508363004 1.7999999999999998
  endloop
endfacet
facet normal 0.9999998159779756 0.0006066663127734907 0.0
  outer loop
    vertex 56.960764377928214 35.34602157912736 0.0
    vertex 56.98038218896406 3.008957508363004 1.7999999999999998
    vertex 56.98038218896406 3.008957508363004 0.0
  endloop
endfacet
facet normal 0.9999998159779756 0.0006066663127734907 0.0
  outer loop
    vertex 56.98038218896406 3.008957508363004 1.7999999999999998
    vertex 56.960764377928214 35.34602157912736 0.0
    vertex 56.960764377928214 35.34602157912736 1.7999999999999998
  endloop
endfacet
facet normal 0.9832060552043866 0.18249891235135784 0.0
  outer loop
    vertex 56.88881132315441 35.73366596688053 0.0
    vertex 56.960764377928214 35.34602157912736 1.7999999999999998
    vertex 56.960764377928214 35.34602157912736 0.0
  endloop
endfacet
facet normal 0.9832060552043866 0.18249891235135784 0.0
  outer loop
    vertex 56.960764377928214 35.34602157912736 1.7999999999999998
    vertex 56.88881132315441 35.73366596688053 0.0
    vertex 56.88881132315441 35.73366596688053 1.7999999999999998
  endloop
endfacet
facet normal 0.9500886192773834 0.31198015244498367 0.0
  outer loop
    vertex 56.76580826133891 36.10825328678314 0.0
    vertex 56.88881132315441 35.73366596688053 1.7999999999999998
    vertex 56.88881132315441 35.73366596688053 0.0
  endloop
endfacet
facet normal 0.9500886192773834 0.31198015244498367 0.0
  outer loop
    vertex 56.88881132315441 35.73366596688053 1.7999999999999998
    vertex 56.76580826133891 36.10825328678314 0.0
    vertex 56.76580826133891 36.10825328678314 1.7999999999999998
  endloop
endfacet
facet normal 0.9000005521253738 0.43588875435599667 0.0
  outer loop
    vertex 56.59395229237247 36.46309260165455 0.0
    vertex 56.76580826133891 36.10825328678314 1.7999999999999998
    vertex 56.76580826133891 36.10825328678314 0.0
  endloop
endfacet
facet normal 0.9000005521253738 0.43588875435599667 0.0
  outer loop
    vertex 56.76580826133891 36.10825328678314 1.7999999999999998
    vertex 56.59395229237247 36.46309260165455 0.0
    vertex 56.59395229237247 36.46309260165455 1.7999999999999998
  endloop
endfacet
facet normal 0.8338365346224746 0.5520114432951392 0.0
  outer loop
    vertex 56.376313134399226 36.791845716262614 0.0
    vertex 56.59395229237247 36.46309260165455 1.7999999999999998
    vertex 56.59395229237247 36.46309260165455 0.0
  endloop
endfacet
facet normal 0.8338365346224746 0.5520114432951392 0.0
  outer loop
    vertex 56.59395229237247 36.46309260165455 1.7999999999999998
    vertex 56.376313134399226 36.791845716262614 0.0
    vertex 56.376313134399226 36.791845716262614 1.7999999999999998
  endloop
endfacet
facet normal 0.7527783987774949 0.6582740176658888 0.0
  outer loop
    vertex 56.116778292032066 37.08864039115632 0.0
    vertex 56.376313134399226 36.791845716262614 1.7999999999999998
    vertex 56.376313134399226 36.791845716262614 0.0
  endloop
endfacet
facet normal 0.7527783987774949 0.6582740176658888 0.0
  outer loop
    vertex 56.376313134399226 36.791845716262614 1.7999999999999998
    vertex 56.116778292032066 37.08864039115632 0.0
    vertex 56.116778292032066 37.08864039115632 1.7999999999999998
  endloop
endfacet
facet normal 0.6582740176658898 0.7527783987774941 0.0
  outer loop
    vertex 55.819983617138355 37.348175233523484 1.7999999999999998
    vertex 56.116778292032066 37.08864039115632 0.0
    vertex 55.819983617138355 37.348175233523484 0.0
  endloop
endfacet
facet normal 0.6582740176658898 0.7527783987774941 0.0
  outer loop
    vertex 56.116778292032066 37.08864039115632 0.0
    vertex 55.819983617138355 37.348175233523484 1.7999999999999998
    vertex 56.116778292032066 37.08864039115632 1.7999999999999998
  endloop
endfacet
facet normal 0.5520114432951292 0.8338365346224813 0.0
  outer loop
    vertex 55.49123050253029 37.56581439149673 1.7999999999999998
    vertex 55.819983617138355 37.348175233523484 0.0
    vertex 55.49123050253029 37.56581439149673 0.0
  endloop
endfacet
facet normal 0.5520114432951292 0.8338365346224813 0.0
  outer loop
    vertex 55.819983617138355 37.348175233523484 0.0
    vertex 55.49123050253029 37.56581439149673 1.7999999999999998
    vertex 55.819983617138355 37.348175233523484 1.7999999999999998
  endloop
endfacet
facet normal 0.43588875435600827 0.9000005521253683 0.0
  outer loop
    vertex 55.13639118765888 37.73767036046317 1.7999999999999998
    vertex 55.49123050253029 37.56581439149673 0.0
    vertex 55.13639118765888 37.73767036046317 0.0
  endloop
endfacet
facet normal 0.43588875435600827 0.9000005521253683 0.0
  outer loop
    vertex 55.49123050253029 37.56581439149673 0.0
    vertex 55.13639118765888 37.73767036046317 1.7999999999999998
    vertex 55.49123050253029 37.56581439149673 1.7999999999999998
  endloop
endfacet
facet normal 0.31198015244498367 0.9500886192773834 0.0
  outer loop
    vertex 54.761803867756264 37.86067342227867 1.7999999999999998
    vertex 55.13639118765888 37.73767036046317 0.0
    vertex 54.761803867756264 37.86067342227867 0.0
  endloop
endfacet
facet normal 0.31198015244498367 0.9500886192773834 0.0
  outer loop
    vertex 55.13639118765888 37.73767036046317 0.0
    vertex 54.761803867756264 37.86067342227867 1.7999999999999998
    vertex 55.13639118765888 37.73767036046317 1.7999999999999998
  endloop
endfacet
facet normal 0.18249891235134402 0.9832060552043893 0.0
  outer loop
    vertex 54.3741594800031 37.93262647705247 1.7999999999999998
    vertex 54.761803867756264 37.86067342227867 0.0
    vertex 54.3741594800031 37.93262647705247 0.0
  endloop
endfacet
facet normal 0.18249891235134402 0.9832060552043893 0.0
  outer loop
    vertex 54.761803867756264 37.86067342227867 0.0
    vertex 54.3741594800031 37.93262647705247 1.7999999999999998
    vertex 54.761803867756264 37.86067342227867 1.7999999999999998
  endloop
endfacet
facet normal 0.04975784819743599 0.9987613110962805 0.0
  outer loop
    vertex 53.980382188964164 37.95224428808843 1.7999999999999998
    vertex 54.3741594800031 37.93262647705247 0.0
    vertex 53.980382188964164 37.95224428808843 0.0
  endloop
endfacet
facet normal 0.04975784819743599 0.9987613110962805 0.0
  outer loop
    vertex 54.3741594800031 37.93262647705247 0.0
    vertex 53.980382188964164 37.95224428808843 1.7999999999999998
    vertex 54.3741594800031 37.93262647705247 1.7999999999999998
  endloop
endfacet
facet normal 1.1720440218708326e-15 1.0 0.0
  outer loop
    vertex 49.168333443479966 37.95224428808844 1.7999999999999998
    vertex 53.980382188964164 37.95224428808843 0.0
    vertex 49.168333443479966 37.95224428808844 0.0
  endloop
endfacet
facet normal 1.1720440218708326e-15 1.0 0.0
  outer loop
    vertex 53.980382188964164 37.95224428808843 0.0
    vertex 49.168333443479966 37.95224428808844 1.7999999999999998
    vertex 53.980382188964164 37.95224428808843 1.7999999999999998
  endloop
endfacet
facet normal 0.0 1.0 0.0
  outer loop
    vertex 8.586604897925104 37.95224428808844 1.7999999999999998
    vertex 49.168333443479966 37.95224428808844 0.0
    vertex 8.586604897925104 37.95224428808844 0.0
  endloop
endfacet
facet normal 0.0 1.0 0.0
  outer loop
    vertex 49.168333443479966 37.95224428808844 0.0
    vertex 8.586604897925104 37.95224428808844 1.7999999999999998
    vertex 49.168333443479966 37.95224428808844 1.7999999999999998
  endloop
endfacet
facet normal -0.18249891235133084 0.9832060552043917 0.0
  outer loop
    vertex 8.19896051017194 37.88029123331464 1.7999999999999998
    vertex 8.586604897925104 37.95224428808844 0.0
    vertex 8.19896051017194 37.88029123331464 0.0
  endloop
endfacet
facet normal -0.18249891235133084 0.9832060552043917 0.0
  outer loop
    vertex 8.586604897925104 37.95224428808844 0.0
    vertex 8.19896051017194 37.88029123331464 1.7999999999999998
    vertex 8.586604897925104 37.95224428808844 1.7999999999999998
  endloop
endfacet
facet normal -0.3119801524449857 0.9500886192773826 0.0
  outer loop
    vertex 7.82437319026933 37.75728817149914 1.7999999999999998
    vertex 8.19896051017194 37.88029123331464 0.0
    vertex 7.82437319026933 37.75728817149914 0.0
  endloop
endfacet
facet normal -0.3119801524449857 0.9500886192773826 0.0
  outer loop
    vertex 8.19896051017194 37.88029123331464 0.0
    vertex 7.82437319026933 37.75728817149914 1.7999999999999998
    vertex 8.19896051017194 37.88029123331464 1.7999999999999998
  endloop
endfacet
facet normal -0.43588875435601104 0.9000005521253669 0.0
  outer loop
    vertex 7.46953387539792 37.5854322025327 1.7999999999999998
    vertex 7.82437319026933 37.75728817149914 0.0
    vertex 7.46953387539792 37.5854322025327 0.0
  endloop
endfacet
facet normal -0.43588875435601104 0.9000005521253669 0.0
  outer loop
    vertex 7.82437319026933 37.75728817149914 0.0
    vertex 7.46953387539792 37.5854322025327 1.7999999999999998
    vertex 7.82437319026933 37.75728817149914 1.7999999999999998
  endloop
endfacet
facet normal -0.552011443295126 0.8338365346224834 0.0
  outer loop
    vertex 7.140780760789854 37.367793044559455 1.7999999999999998
    vertex 7.46953387539792 37.5854322025327 0.0
    vertex 7.140780760789854 37.367793044559455 0.0
  endloop
endfacet
facet normal -0.552011443295126 0.8338365346224834 0.0
  outer loop
    vertex 7.46953387539792 37.5854322025327 0.0
    vertex 7.140780760789854 37.367793044559455 1.7999999999999998
    vertex 7.46953387539792 37.5854322025327 1.7999999999999998
  endloop
endfacet
facet normal -0.6582740176658969 0.7527783987774879 0.0
  outer loop
    vertex 6.84398608589615 37.10825820219229 1.7999999999999998
    vertex 7.140780760789854 37.367793044559455 0.0
    vertex 6.84398608589615 37.10825820219229 0.0
  endloop
endfacet
facet normal -0.6582740176658969 0.7527783987774879 0.0
  outer loop
    vertex 7.140780760789854 37.367793044559455 0.0
    vertex 6.84398608589615 37.10825820219229 1.7999999999999998
    vertex 7.140780760789854 37.367793044559455 1.7999999999999998
  endloop
endfacet
facet normal -0.7527783987774835 0.658274017665902 0.0
  outer loop
    vertex 6.84398608589615 37.10825820219229 1.7999999999999998
    vertex 6.584451243528987 36.81146352729859 0.0
    vertex 6.584451243528987 36.81146352729859 1.7999999999999998
  endloop
endfacet
facet normal -0.7527783987774835 0.658274017665902 0.0
  outer loop
    vertex 6.584451243528987 36.81146352729859 0.0
    vertex 6.84398608589615 37.10825820219229 1.7999999999999998
    vertex 6.84398608589615 37.10825820219229 0.0
  endloop
endfacet
facet normal -0.8338365346224873 0.5520114432951202 0.0
  outer loop
    vertex 6.584451243528987 36.81146352729859 1.7999999999999998
    vertex 6.366812085555742 36.48271041269052 0.0
    vertex 6.366812085555742 36.48271041269052 1.7999999999999998
  endloop
endfacet
facet normal -0.8338365346224873 0.5520114432951202 0.0
  outer loop
    vertex 6.366812085555742 36.48271041269052 0.0
    vertex 6.584451243528987 36.81146352729859 1.7999999999999998
    vertex 6.584451243528987 36.81146352729859 0.0
  endloop
endfacet
facet normal -0.9000005521253641 0.43588875435601676 0.0
  outer loop
    vertex 6.366812085555742 36.48271041269052 1.7999999999999998
    vertex 6.194956116589297 36.12787109781912 0.0
    vertex 6.194956116589297 36.12787109781912 1.7999999999999998
  endloop
endfacet
facet normal -0.9000005521253641 0.43588875435601676 0.0
  outer loop
    vertex 6.194956116589297 36.12787109781912 0.0
    vertex 6.366812085555742 36.48271041269052 1.7999999999999998
    vertex 6.366812085555742 36.48271041269052 0.0
  endloop
endfacet
facet normal -0.9500886192773824 0.3119801524449869 0.0
  outer loop
    vertex 6.194956116589297 36.12787109781912 1.7999999999999998
    vertex 6.071953054773799 35.7532837779165 0.0
    vertex 6.071953054773799 35.7532837779165 1.7999999999999998
  endloop
endfacet
facet normal -0.9500886192773824 0.3119801524449869 0.0
  outer loop
    vertex 6.071953054773799 35.7532837779165 0.0
    vertex 6.194956116589297 36.12787109781912 1.7999999999999998
    vertex 6.194956116589297 36.12787109781912 0.0
  endloop
endfacet
facet normal -0.9832060552043912 0.18249891235133364 0.0
  outer loop
    vertex 6.071953054773799 35.7532837779165 1.7999999999999998
    vertex 6.000000000000002 35.36563939016334 0.0
    vertex 6.000000000000002 35.36563939016334 1.7999999999999998
  endloop
endfacet
facet normal -0.9832060552043912 0.18249891235133364 0.0
  outer loop
    vertex 6.000000000000002 35.36563939016334 0.0
    vertex 6.071953054773799 35.7532837779165 1.7999999999999998
    vertex 6.071953054773799 35.7532837779165 0.0
  endloop
endfacet
facet normal -0.9999996195797777 0.0008722616006024915 0.0
  outer loop
    vertex 6.000000000000002 35.36563939016334 1.7999999999999998
    vertex 5.971424680601027 2.605618189404917 0.0
    vertex 5.971424680601027 2.605618189404917 1.7999999999999998
  endloop
endfacet
facet normal -0.9999996195797777 0.0008722616006024915 0.0
  outer loop
    vertex 5.971424680601027 2.605618189404917 0.0
    vertex 6.000000000000002 35.36563939016334 1.7999999999999998
    vertex 6.000000000000002 35.36563939016334 0.0
  endloop
endfacet
facet normal -0.99224345935178 -0.12430976379035065 -0.0
  outer loop
    vertex 5.971424680601027 2.605618189404917 1.7999999999999998
    vertex 6.021576059117044 2.2053087061215475 0.0
    vertex 6.021576059117044 2.2053087061215475 1.7999999999999998
  endloop
endfacet
facet normal -0.99224345935178 -0.12430976379035065 -0.0
  outer loop
    vertex 6.021576059117044 2.2053087061215475 0.0
    vertex 5.971424680601027 2.605618189404917 1.7999999999999998
    vertex 5.971424680601027 2.605618189404917 0.0
  endloop
endfacet
facet normal -0.963378012970478 -0.26814698231576994 -0.0
  outer loop
    vertex 6.021576059117044 2.2053087061215475 1.7999999999999998
    vertex 6.129756948517863 1.8166446630945354 0.0
    vertex 6.129756948517863 1.8166446630945354 1.7999999999999998
  endloop
endfacet
facet normal -0.963378012970478 -0.26814698231576994 -0.0
  outer loop
    vertex 6.129756948517863 1.8166446630945354 0.0
    vertex 6.021576059117044 2.2053087061215475 1.7999999999999998
    vertex 6.021576059117044 2.2053087061215475 0.0
  endloop
endfacet
facet normal -0.9137783987290681 -0.4062130451082789 -0.0
  outer loop
    vertex 6.129756948517863 1.8166446630945354 1.7999999999999998
    vertex 6.293639040818568 1.4479910275546182 0.0
    vertex 6.293639040818568 1.4479910275546182 1.7999999999999998
  endloop
endfacet
facet normal -0.9137783987290681 -0.4062130451082789 -0.0
  outer loop
    vertex 6.293639040818568 1.4479910275546182 0.0
    vertex 6.129756948517863 1.8166446630945354 1.7999999999999998
    vertex 6.129756948517863 1.8166446630945354 0.0
  endloop
endfacet
facet normal -0.8445121173527417 -0.5355364447396546 -0.0
  outer loop
    vertex 6.293639040818568 1.4479910275546182 1.7999999999999998
    vertex 6.509695206724862 1.1072820955502947 0.0
    vertex 6.509695206724862 1.1072820955502947 1.7999999999999998
  endloop
endfacet
facet normal -0.8445121173527417 -0.5355364447396546 -0.0
  outer loop
    vertex 6.509695206724862 1.1072820955502947 0.0
    vertex 6.293639040818568 1.4479910275546182 1.7999999999999998
    vertex 6.293639040818568 1.4479910275546182 0.0
  endloop
endfacet
facet normal -0.7570699426455132 -0.6533338365205948 -0.0
  outer loop
    vertex 6.509695206724862 1.1072820955502947 1.7999999999999998
    vertex 6.773275407777494 0.8018507271764657 0.0
    vertex 6.773275407777494 0.8018507271764657 1.7999999999999998
  endloop
endfacet
facet normal -0.7570699426455132 -0.6533338365205948 -0.0
  outer loop
    vertex 6.773275407777494 0.8018507271764657 0.0
    vertex 6.509695206724862 1.1072820955502947 1.7999999999999998
    vertex 6.509695206724862 1.1072820955502947 0.0
  endloop
endfacet
facet normal -0.6533338365205947 -0.7570699426455134 -0.0
  outer loop
    vertex 7.078706776151322 0.538270526123835 1.7999999999999998
    vertex 6.773275407777494 0.8018507271764657 0.0
    vertex 7.078706776151322 0.538270526123835 0.0
  endloop
endfacet
facet normal -0.6533338365205947 -0.7570699426455134 -0.0
  outer loop
    vertex 6.773275407777494 0.8018507271764657 0.0
    vertex 7.078706776151322 0.538270526123835 1.7999999999999998
    vertex 6.773275407777494 0.8018507271764657 1.7999999999999998
  endloop
endfacet
facet normal -0.5355364447396549 -0.8445121173527417 -0.0
  outer loop
    vertex 7.419415708155646 0.32221436021754 1.7999999999999998
    vertex 7.078706776151322 0.538270526123835 0.0
    vertex 7.419415708155646 0.32221436021754 0.0
  endloop
endfacet
facet normal -0.5355364447396549 -0.8445121173527417 -0.0
  outer loop
    vertex 7.078706776151322 0.538270526123835 0.0
    vertex 7.419415708155646 0.32221436021754 1.7999999999999998
    vertex 7.078706776151322 0.538270526123835 1.7999999999999998
  endloop
endfacet
facet normal -0.4062130451082785 -0.9137783987290682 -0.0
  outer loop
    vertex 7.788069343695564 0.15833226791683513 1.7999999999999998
    vertex 7.419415708155646 0.32221436021754 0.0
    vertex 7.788069343695564 0.15833226791683513 0.0
  endloop
endfacet
facet normal -0.4062130451082785 -0.9137783987290682 -0.0
  outer loop
    vertex 7.419415708155646 0.32221436021754 0.0
    vertex 7.788069343695564 0.15833226791683513 1.7999999999999998
    vertex 7.419415708155646 0.32221436021754 1.7999999999999998
  endloop
endfacet
facet normal -0.26814698231577117 -0.9633780129704775 -0.0
  outer loop
    vertex 8.176733386722574 0.050151378516016004 1.7999999999999998
    vertex 7.788069343695564 0.15833226791683513 0.0
    vertex 8.176733386722574 0.050151378516016004 0.0
  endloop
endfacet
facet normal -0.26814698231577117 -0.9633780129704775 -0.0
  outer loop
    vertex 7.788069343695564 0.15833226791683513 0.0
    vertex 8.176733386722574 0.050151378516016004 1.7999999999999998
    vertex 7.788069343695564 0.15833226791683513 1.7999999999999998
  endloop
endfacet
facet normal -0.12430976379034869 -0.9922434593517802 -0.0
  outer loop
    vertex 8.577042870005945 0.0 1.7999999999999998
    vertex 8.176733386722574 0.050151378516016004 0.0
    vertex 8.577042870005945 0.0 0.0
  endloop
endfacet
facet normal -0.12430976379034869 -0.9922434593517802 -0.0
  outer loop
    vertex 8.176733386722574 0.050151378516016004 0.0
    vertex 8.577042870005945 0.0 1.7999999999999998
    vertex 8.176733386722574 0.050151378516016004 1.7999999999999998
  endloop
endfacet
facet normal 0.02220289415176569 -0.9997534853609091 0.0
  outer loop
    vertex 8.980382188964041 0.008957508363013155 1.7999999999999998
    vertex 8.577042870005945 0.0 0.0
    vertex 8.980382188964041 0.008957508363013155 0.0
  endloop
endfacet
facet normal 0.02220289415176569 -0.9997534853609091 0.0
  outer loop
    vertex 8.577042870005945 0.0 0.0
    vertex 8.980382188964041 0.008957508363013155 1.7999999999999998
    vertex 8.577042870005945 0.0 1.7999999999999998
  endloop
endfacet
facet normal -1.9583100573249293e-16 -1.0 -0.0
  outer loop
    vertex 53.980382188964036 0.008957508363004343 1.7999999999999998
    vertex 8.980382188964041 0.008957508363013155 0.0
    vertex 53.980382188964036 0.008957508363004343 0.0
  endloop
endfacet
facet normal -1.9583100573249293e-16 -1.0 -0.0
  outer loop
    vertex 8.980382188964041 0.008957508363013155 0.0
    vertex 53.980382188964036 0.008957508363004343 1.7999999999999998
    vertex 8.980382188964041 0.008957508363013155 1.7999999999999998
  endloop
endfacet
facet normal 0.04975784819743599 -0.9987613110962805 0.0
  outer loop
    vertex 54.37415948000297 0.02857531939896282 1.7999999999999998
    vertex 53.980382188964036 0.008957508363004343 0.0
    vertex 54.37415948000297 0.02857531939896282 0.0
  endloop
endfacet
facet normal 0.04975784819743599 -0.9987613110962805 0.0
  outer loop
    vertex 53.980382188964036 0.008957508363004343 0.0
    vertex 54.37415948000297 0.02857531939896282 1.7999999999999998
    vertex 53.980382188964036 0.008957508363004343 1.7999999999999998
  endloop
endfacet
facet normal 0.18249891235133195 -0.9832060552043916 0.0
  outer loop
    vertex 54.76180386775614 0.1005283741727601 1.7999999999999998
    vertex 54.37415948000297 0.02857531939896282 0.0
    vertex 54.76180386775614 0.1005283741727601 0.0
  endloop
endfacet
facet normal 0.18249891235133195 -0.9832060552043916 0.0
  outer loop
    vertex 54.37415948000297 0.02857531939896282 0.0
    vertex 54.76180386775614 0.1005283741727601 1.7999999999999998
    vertex 54.37415948000297 0.02857531939896282 1.7999999999999998
  endloop
endfacet
facet normal 0.3119801524449852 -0.9500886192773829 0.0
  outer loop
    vertex 55.13639118765875 0.22353143598825664 1.7999999999999998
    vertex 54.76180386775614 0.1005283741727601 0.0
    vertex 55.13639118765875 0.22353143598825664 0.0
  endloop
endfacet
facet normal 0.3119801524449852 -0.9500886192773829 0.0
  outer loop
    vertex 54.76180386775614 0.1005283741727601 0.0
    vertex 55.13639118765875 0.22353143598825664 1.7999999999999998
    vertex 54.76180386775614 0.1005283741727601 1.7999999999999998
  endloop
endfacet
facet normal 0.43588875435601115 -0.9000005521253669 0.0
  outer loop
    vertex 55.491230502530165 0.39538740495470176 1.7999999999999998
    vertex 55.13639118765875 0.22353143598825664 0.0
    vertex 55.491230502530165 0.39538740495470176 0.0
  endloop
endfacet
facet normal 0.43588875435601115 -0.9000005521253669 0.0
  outer loop
    vertex 55.13639118765875 0.22353143598825664 0.0
    vertex 55.491230502530165 0.39538740495470176 1.7999999999999998
    vertex 55.13639118765875 0.22353143598825664 1.7999999999999998
  endloop
endfacet
facet normal 0.5520114432951133 -0.8338365346224919 0.0
  outer loop
    vertex 55.81998361713824 0.613026562927946 1.7999999999999998
    vertex 55.491230502530165 0.39538740495470176 0.0
    vertex 55.81998361713824 0.613026562927946 0.0
  endloop
endfacet
facet normal 0.5520114432951133 -0.8338365346224919 0.0
  outer loop
    vertex 55.491230502530165 0.39538740495470176 0.0
    vertex 55.81998361713824 0.613026562927946 1.7999999999999998
    vertex 55.491230502530165 0.39538740495470176 1.7999999999999998
  endloop
endfacet
facet normal 0.658274017665902 -0.7527783987774835 0.0
  outer loop
    vertex 56.11677829203194 0.8725614052951093 1.7999999999999998
    vertex 55.81998361713824 0.613026562927946 0.0
    vertex 56.11677829203194 0.8725614052951093 0.0
  endloop
endfacet
facet normal 0.658274017665902 -0.7527783987774835 0.0
  outer loop
    vertex 55.81998361713824 0.613026562927946 0.0
    vertex 56.11677829203194 0.8725614052951093 1.7999999999999998
    vertex 55.81998361713824 0.613026562927946 1.7999999999999998
  endloop
endfacet
facet normal 0.7527783987774943 -0.6582740176658897 0.0
  outer loop
    vertex 56.3763131343991 1.1693560801888123 0.0
    vertex 56.11677829203194 0.8725614052951093 1.7999999999999998
    vertex 56.11677829203194 0.8725614052951093 0.0
  endloop
endfacet
facet normal 0.7527783987774943 -0.6582740176658897 0.0
  outer loop
    vertex 56.11677829203194 0.8725614052951093 1.7999999999999998
    vertex 56.3763131343991 1.1693560801888123 0.0
    vertex 56.3763131343991 1.1693560801888123 1.7999999999999998
  endloop
endfacet
facet normal 0.8338365346224775 -0.5520114432951351 0.0
  outer loop
    vertex 56.59395229237235 1.498109194796879 0.0
    vertex 56.3763131343991 1.1693560801888123 1.7999999999999998
    vertex 56.3763131343991 1.1693560801888123 0.0
  endloop
endfacet
facet normal 0.8338365346224775 -0.5520114432951351 0.0
  outer loop
    vertex 56.3763131343991 1.1693560801888123 1.7999999999999998
    vertex 56.59395229237235 1.498109194796879 0.0
    vertex 56.59395229237235 1.498109194796879 1.7999999999999998
  endloop
endfacet
facet normal 0.9000005521253612 -0.43588875435602287 0.0
  outer loop
    vertex 56.7658082613388 1.8529485096682887 0.0
    vertex 56.59395229237235 1.498109194796879 1.7999999999999998
    vertex 56.59395229237235 1.498109194796879 0.0
  endloop
endfacet
facet normal 0.9000005521253612 -0.43588875435602287 0.0
  outer loop
    vertex 56.59395229237235 1.498109194796879 1.7999999999999998
    vertex 56.7658082613388 1.8529485096682887 0.0
    vertex 56.7658082613388 1.8529485096682887 1.7999999999999998
  endloop
endfacet
facet normal 0.9500886192773829 -0.3119801524449855 0.0
  outer loop
    vertex 56.88881132315429 2.2275358295708996 0.0
    vertex 56.7658082613388 1.8529485096682887 1.7999999999999998
    vertex 56.7658082613388 1.8529485096682887 0.0
  endloop
endfacet
facet normal 0.9500886192773829 -0.3119801524449855 0.0
  outer loop
    vertex 56.7658082613388 1.8529485096682887 1.7999999999999998
    vertex 56.88881132315429 2.2275358295708996 0.0
    vertex 56.88881132315429 2.2275358295708996 1.7999999999999998
  endloop
endfacet
facet normal 0.9832060552043919 -0.18249891235133034 0.0
  outer loop
    vertex 56.96076437792809 2.615180217324065 0.0
    vertex 56.88881132315429 2.2275358295708996 1.7999999999999998
    vertex 56.88881132315429 2.2275358295708996 0.0
  endloop
endfacet
facet normal 0.9832060552043919 -0.18249891235133034 0.0
  outer loop
    vertex 56.88881132315429 2.2275358295708996 1.7999999999999998
    vertex 56.96076437792809 2.615180217324065 0.0
    vertex 56.96076437792809 2.615180217324065 1.7999999999999998
  endloop
endfacet
facet normal 0.9987613110962797 -0.04975784819744994 0.0
  outer loop
    vertex 56.98038218896406 3.008957508363004 0.0
    vertex 56.96076437792809 2.615180217324065 1.7999999999999998
    vertex 56.96076437792809 2.615180217324065 0.0
  endloop
endfacet
facet normal 0.9987613110962797 -0.04975784819744994 0.0
  outer loop
    vertex 56.96076437792809 2.615180217324065 1.7999999999999998
    vertex 56.98038218896406 3.008957508363004 0.0
    vertex 56.98038218896406 3.008957508363004 1.7999999999999998
  endloop
endfacet
facet normal -0.0 -0.0 1.0
  outer loop
    vertex 53.18038218896404 3.8089575083630134 1.7999999999999998
    vertex 9.78038218896404 34.208957508363014 1.7999999999999998
    vertex 9.78038218896404 3.8089575083630134 1.7999999999999998
  endloop
endfacet
facet normal -0.0 -0.0 1.0
  outer loop
    vertex 9.78038218896404 34.208957508363014 1.7999999999999998
    vertex 53.18038218896404 3.8089575083630134 1.7999999999999998
    vertex 53.18038218896404 34.208957508363014 1.7999999999999998
  endloop
endfacet
facet normal 0.0 0.0 1.0
  outer loop
    vertex 8.18038218896404 2.2089575083630133 6.8
    vertex 9.78038218896404 3.8089575083630134 6.8
    vertex 8.18038218896404 35.808957508363015 6.8
  endloop
endfacet
facet normal 0.0 0.0 1.0
  outer loop
    vertex 9.78038218896404 3.8089575083630134 6.8
    vertex 8.18038218896404 2.2089575083630133 6.8
    vertex 54.78038218896404 2.2089575083630133 6.8
  endloop
endfacet
facet normal 0.0 0.0 1.0
  outer loop
    vertex 9.78038218896404 3.8089575083630134 6.8
    vertex 54.78038218896404 2.2089575083630133 6.8
    vertex 53.18038218896404 3.8089575083630134 6.8
  endloop
endfacet
facet normal 0.0 0.0 1.0
  outer loop
    vertex 53.18038218896404 3.8089575083630134 6.8
    vertex 54.78038218896404 2.2089575083630133 6.8
    vertex 53.18038218896404 34.208957508363014 6.8
  endloop
endfacet
facet normal 0.0 0.0 1.0
  outer loop
    vertex 8.18038218896404 35.808957508363015 6.8
    vertex 9.78038218896404 34.208957508363014 6.8
    vertex 54.78038218896404 35.808957508363015 6.8
  endloop
endfacet
facet normal 0.0 0.0 1.0
  outer loop
    vertex 9.78038218896404 34.208957508363014 6.8
    vertex 8.18038218896404 35.808957508363015 6.8
    vertex 9.78038218896404 3.8089575083630134 6.8
  endloop
endfacet
facet normal 0.0 0.0 1.0
  outer loop
    vertex 54.78038218896404 35.808957508363015 6.8
    vertex 9.78038218896404 34.208957508363014 6.8
    vertex 53.18038218896404 34.208957508363014 6.8
  endloop
endfacet
facet normal 0.0 0.0 1.0
  outer loop
    vertex 54.78038218896404 35.808957508363015 6.8
    vertex 53.18038218896404 34.208957508363014 6.8
    vertex 54.78038218896404 2.2089575083630133 6.8
  endloop
endfacet
facet normal 0.0 -1.0 0.0
  outer loop
    vertex 54.78038218896404 2.2089575083630133 6.8
    vertex 8.18038218896404 2.2089575083630133 1.7999999999999998
    vertex 54.78038218896404 2.2089575083630133 1.7999999999999998
  endloop
endfacet
facet normal 0.0 -1.0 0.0
  outer loop
    vertex 8.18038218896404 2.2089575083630133 1.7999999999999998
    vertex 54.78038218896404 2.2089575083630133 6.8
    vertex 8.18038218896404 2.2089575083630133 6.8
  endloop
endfacet
facet normal 0.0 -1.0 0.0
  outer loop
    vertex 53.18038218896404 34.208957508363014 6.8
    vertex 9.78038218896404 34.208957508363014 1.7999999999999998
    vertex 53.18038218896404 34.208957508363014 1.7999999999999998
  endloop
endfacet
facet normal 0.0 -1.0 0.0
  outer loop
    vertex 9.78038218896404 34.208957508363014 1.7999999999999998
    vertex 53.18038218896404 34.208957508363014 6.8
    vertex 9.78038218896404 34.208957508363014 6.8
  endloop
endfacet
facet normal -1.0 -0.0 -0.0
  outer loop
    vertex 53.18038218896404 34.208957508363014 6.8
    vertex 53.18038218896404 3.8089575083630134 1.7999999999999998
    vertex 53.18038218896404 3.8089575083630134 6.8
  endloop
endfacet
facet normal -1.0 -0.0 -0.0
  outer loop
    vertex 53.18038218896404 3.8089575083630134 1.7999999999999998
    vertex 53.18038218896404 34.208957508363014 6.8
    vertex 53.18038218896404 34.208957508363014 1.7999999999999998
  endloop
endfacet
facet normal 0.0 1.0 0.0
  outer loop
    vertex 9.78038218896404 3.8089575083630134 6.8
    vertex 53.18038218896404 3.8089575083630134 1.7999999999999998
    vertex 9.78038218896404 3.8089575083630134 1.7999999999999998
  endloop
endfacet
facet normal 0.0 1.0 0.0
  outer loop
    vertex 53.18038218896404 3.8089575083630134 1.7999999999999998
    vertex 9.78038218896404 3.8089575083630134 6.8
    vertex 53.18038218896404 3.8089575083630134 6.8
  endloop
endfacet
facet normal 1.0 -0.0 0.0
  outer loop
    vertex 9.78038218896404 34.208957508363014 1.7999999999999998
    vertex 9.78038218896404 3.8089575083630134 6.8
    vertex 9.78038218896404 3.8089575083630134 1.7999999999999998
  endloop
endfacet
facet normal 1.0 -0.0 0.0
  outer loop
    vertex 9.78038218896404 3.8089575083630134 6.8
    vertex 9.78038218896404 34.208957508363014 1.7999999999999998
    vertex 9.78038218896404 34.208957508363014 6.8
  endloop
endfacet
facet normal -1.0 0.0 0.0
  outer loop
    vertex 8.18038218896404 35.808957508363015 6.8
    vertex 8.18038218896404 2.2089575083630133 1.7999999999999998
    vertex 8.18038218896404 2.2089575083630133 6.8
  endloop
endfacet
facet normal -1.0 0.0 0.0
  outer loop
    vertex 8.18038218896404 2.2089575083630133 1.7999999999999998
    vertex 8.18038218896404 35.808957508363015 6.8
    vertex 8.18038218896404 35.808957508363015 1.7999999999999998
  endloop
endfacet
facet normal 0.0 1.0 0.0
  outer loop
    vertex 8.18038218896404 35.808957508363015 6.8
    vertex 54.78038218896404 35.808957508363015 1.7999999999999998
    vertex 8.18038218896404 35.808957508363015 1.7999999999999998
  endloop
endfacet
facet normal 0.0 1.0 0.0
  outer loop
    vertex 54.78038218896404 35.808957508363015 1.7999999999999998
    vertex 8.18038218896404 35.808957508363015 6.8
    vertex 54.78038218896404 35.808957508363015 6.8
  endloop
endfacet
facet normal 1.0 0.0 0.0
  outer loop
    vertex 54.78038218896404 35.808957508363015 1.7999999999999998
    vertex 54.78038218896404 2.2089575083630133 6.8
    vertex 54.78038218896404 2.2089575083630133 1.7999999999999998
  endloop
endfacet
facet normal 1.0 0.0 0.0
  outer loop
    vertex 54.78038218896404 2.2089575083630133 6.8
    vertex 54.78038218896404 35.808957508363015 1.7999999999999998
    vertex 54.78038218896404 35.808957508363015 6.8
  endloop
endfacet
endsolid moodi_so_final_v2
